<?xml version="1.0" encoding="UTF-8" standalone="no"?><svg xmlns="http://www.w3.org/2000/svg" xmlns:xlink="http://www.w3.org/1999/xlink" contentScriptType="application/ecmascript" contentStyleType="text/css" height="298px" preserveAspectRatio="none" style="width:450px;height:298px;" version="1.1" viewBox="0 0 450 298" width="450px" zoomAndPan="magnify"><defs/><g><ellipse cx="221.7648" cy="104.242" fill="#F8F8F8" rx="41.1838" ry="13.242" style="stroke: #383838; stroke-width: 0.5;"/><text fill="#000000" font-family="Tahoma, sans-serif" font-size="12" lengthAdjust="spacingAndGlyphs" textLength="54" x="194.7648" y="107.9842">locations</text><ellipse cx="212.4085" cy="273.8655" fill="#F8F8F8" rx="57.3275" ry="13.8655" style="stroke: #383838; stroke-width: 0.5;"/><text fill="#000000" font-family="Tahoma, sans-serif" font-size="12" lengthAdjust="spacingAndGlyphs" textLength="81" x="171.9085" y="277.6077">locationsData</text><ellipse cx="183.7084" cy="43.742" fill="#F8F8F8" rx="25.6274" ry="13.242" style="stroke: #383838; stroke-width: 0.5;"/><text fill="#000000" font-family="Tahoma, sans-serif" font-size="12" font-weight="bold" lengthAdjust="spacingAndGlyphs" textLength="32" x="167.7084" y="47.4842">main</text><ellipse cx="308.7795" cy="104.242" fill="#F8F8F8" rx="32.6985" ry="13.242" style="stroke: #383838; stroke-width: 0.5;"/><text fill="#000000" font-family="Tahoma, sans-serif" font-size="12" lengthAdjust="spacingAndGlyphs" textLength="42" x="287.7795" y="107.9842">movies</text><ellipse cx="60.3716" cy="274.242" fill="#F8F8F8" rx="51.7904" ry="13.242" style="stroke: #383838; stroke-width: 0.5;"/><text fill="#000000" font-family="Tahoma, sans-serif" font-size="12" lengthAdjust="spacingAndGlyphs" textLength="69" x="25.8716" y="277.9842">moviesData</text><ellipse cx="363.8131" cy="162.4464" fill="#F8F8F8" rx="75.2321" ry="17.4464" style="stroke: #383838; stroke-width: 0.5;"/><text fill="#000000" font-family="Tahoma, sans-serif" font-size="12" lengthAdjust="spacingAndGlyphs" textLength="125" x="301.3131" y="166.1886">moviesEventListeners</text><ellipse cx="81.536" cy="104.091" fill="#F8F8F8" rx="58.4548" ry="14.091" style="stroke: #383838; stroke-width: 0.5;"/><text fill="#000000" font-family="Tahoma, sans-serif" font-size="12" lengthAdjust="spacingAndGlyphs" textLength="84" x="39.536" y="107.8331">singleLocation</text><ellipse cx="84.7999" cy="43.6437" fill="#F8F8F8" rx="56.2187" ry="13.6437" style="stroke: #383838; stroke-width: 0.5;"/><text fill="#000000" font-family="Tahoma, sans-serif" font-size="12" font-weight="bold" lengthAdjust="spacingAndGlyphs" textLength="78" x="45.7999" y="47.3859">singleMovie</text><ellipse cx="308.365" cy="43.6568" fill="#F8F8F8" rx="86.284" ry="19.6568" style="stroke: #383838; stroke-width: 0.5;"/><text fill="#000000" font-family="Tahoma, sans-serif" font-size="12" lengthAdjust="spacingAndGlyphs" textLength="150" x="233.365" y="47.399">singleMovieEventListeners</text><ellipse cx="173.4988" cy="219.9342" fill="#F8F8F8" rx="15.4178" ry="12.9342" style="stroke: #383838; stroke-width: 0.5;"/><text fill="#000000" font-family="Tahoma, sans-serif" font-size="12" lengthAdjust="spacingAndGlyphs" textLength="17" x="164.9988" y="223.6764">util</text><!--link locations to locationsData--><path d="M220.934,117.082 C219.381,146.077 215.433,219.7595 213.576,254.4295 " fill="none" id="locations-locationsData" style="stroke: #000000; stroke-width: 0.55;"/><polygon fill="#000000" points="213.297,259.6461,217.7729,250.8731,213.5646,254.6533,209.7844,250.4449,213.297,259.6461" style="stroke: #000000; stroke-width: 0.55;"/><!--link locations to util--><path d="M216.357,117.248 C212.986,125.161 208.512,135.684 204.581,145 C196.213,164.831 186.652,187.685 180.387,202.6858 " fill="none" id="locations-util" style="stroke: #000000; stroke-width: 0.55;"/><polygon fill="#000000" points="178.395,207.4563,185.5536,200.6921,180.3213,202.8423,178.1712,197.61,178.395,207.4563" style="stroke: #000000; stroke-width: 0.55;"/><!--link <b>main</b> to locations--><path d="M191.089,56.058 C196.791,64.836 204.705,77.02 211.042,86.775 " fill="none" id="&lt;b&gt;main&lt;/b&gt;-locations" style="stroke: #000000; stroke-width: 1.0;"/><polygon fill="#000000" points="213.828,91.065,212.2786,81.3388,211.1038,86.8723,205.5703,85.6975,213.828,91.065" style="stroke: #000000; stroke-width: 1.0;"/><!--link <b>main</b> to movies--><path d="M199.004,53.908 C204.199,56.944 210.075,60.236 215.581,63 C237.262,73.882 262.598,84.658 281.346,92.278 " fill="none" id="&lt;b&gt;main&lt;/b&gt;-movies" style="stroke: #000000; stroke-width: 1.0;"/><polygon fill="#000000" points="286.45,94.341,279.6055,87.2591,281.8145,92.4668,276.6068,94.6758,286.45,94.341" style="stroke: #000000; stroke-width: 1.0;"/><!--link movies to moviesData--><path d="M300.029,116.808 C288.928,131.908 268.708,158.655 249.581,180 C227.139,205.0444 224.561,215.9402 195.581,233 C168.412,248.9938 134.354,259.0248 107.244,265.0417 " fill="none" id="movies-moviesData" style="stroke: #000000; stroke-width: 0.55;"/><polygon fill="#000000" points="102.2657,266.119,111.9085,268.123,107.1524,265.0605,110.2149,260.3043,102.2657,266.119" style="stroke: #000000; stroke-width: 0.55;"/><!--link movies to moviesEventListeners--><path d="M319.711,116.434 C326.617,123.528 335.688,132.846 343.788,141.167 " fill="none" id="movies-moviesEventListeners" style="stroke: #000000; stroke-width: 0.55;"/><polygon fill="#000000" points="347.673,145.158,344.2603,135.9193,344.1849,141.5756,338.5286,141.5002,347.673,145.158" style="stroke: #000000; stroke-width: 0.55;"/><!--link movies to util--><path d="M294.446,116.053 C284.363,123.999 270.529,135.027 258.581,145 C233.241,166.151 204.385,191.5618 187.652,206.4324 " fill="none" id="movies-util" style="stroke: #000000; stroke-width: 0.55;"/><polygon fill="#000000" points="183.669,209.977,193.0513,206.9817,187.404,206.6529,187.7328,201.0056,183.669,209.977" style="stroke: #000000; stroke-width: 0.55;"/><!--link singleLocation to locationsData--><path d="M85.6761,118.219 C90.7045,133.592 100.0076,159.479 111.581,180 C126.078,205.7051 130.035,212.8335 151.581,233 C161.866,242.6262 174.73,251.439 185.99,258.3278 " fill="none" id="singleLocation-locationsData" style="stroke: #000000; stroke-width: 0.55;"/><polygon fill="#000000" points="190.379,260.9669,184.7279,252.9006,186.0942,258.39,180.6048,259.7563,190.379,260.9669" style="stroke: #000000; stroke-width: 0.55;"/><!--link singleLocation to util--><path d="M92.1348,118.077 C109.552,139.66 144.174,182.56 162.15,204.8357 " fill="none" id="singleLocation-util" style="stroke: #000000; stroke-width: 0.55;"/><polygon fill="#000000" points="165.305,208.7452,162.7661,199.2292,162.1651,204.8541,156.5403,204.2531,165.305,208.7452" style="stroke: #000000; stroke-width: 0.55;"/><!--link <b>singleMovie</b> to moviesData--><path d="M56.6569,55.395 C41.8818,62.765 25.08,74.088 16.5812,90 C-13.4974,146.317 27.9705,223.2721 49.2921,256.5543 " fill="none" id="&lt;b&gt;singleMovie&lt;/b&gt;-moviesData" style="stroke: #000000; stroke-width: 1.0;"/><polygon fill="#000000" points="52.2808,261.1402,50.718,251.4161,49.5508,256.9513,44.0157,255.7841,52.2808,261.1402" style="stroke: #000000; stroke-width: 1.0;"/><!--link <b>singleMovie</b> to singleLocation--><path d="M83.9303,57.194 C83.5154,65.284 82.9713,75.894 82.5113,84.865 " fill="none" id="&lt;b&gt;singleMovie&lt;/b&gt;-singleLocation" style="stroke: #000000; stroke-width: 1.0;"/><polygon fill="#000000" points="82.2517,89.926,86.7068,81.1424,82.5074,84.9325,78.7172,80.7332,82.2517,89.926" style="stroke: #000000; stroke-width: 1.0;"/><!--link <b>singleMovie</b> to singleMovieEventListeners--><path d="M105.9446,31.003 C120.187,23.416 139.617,14.455 158.081,10.5 C194.33,2.736 235.438,13.049 265.521,24.142 " fill="none" id="&lt;b&gt;singleMovie&lt;/b&gt;-singleMovieEventListeners" style="stroke: #000000; stroke-width: 1.0;"/><polygon fill="#000000" points="270.252,25.927,263.2422,19.0087,265.5736,24.1628,260.4195,26.4941,270.252,25.927" style="stroke: #000000; stroke-width: 1.0;"/><!--link <b>singleMovie</b> to util--><path d="M107.72,55.932 C121.1,63.724 137.113,75.294 146.581,90 C169.13,125.024 173.263,175.472 173.769,201.694 " fill="none" id="&lt;b&gt;singleMovie&lt;/b&gt;-util" style="stroke: #000000; stroke-width: 1.0;"/><polygon fill="#000000" points="173.827,206.9076,177.7262,197.8635,173.7711,201.9079,169.7267,197.9528,173.827,206.9076" style="stroke: #000000; stroke-width: 1.0;"/><!--link singleMovieEventListeners to locations--><path d="M282.006,62.37 C269.188,70.988 254.048,81.169 242.129,89.183 " fill="none" id="singleMovieEventListeners-locations" style="stroke: #000000; stroke-width: 0.55;"/><polygon fill="#000000" points="237.894,92.031,247.5944,90.3277,242.043,89.2407,243.13,83.6893,237.894,92.031" style="stroke: #000000; stroke-width: 0.55;"/><!--link singleMovieEventListeners to movies--><path d="M308.581,63.01 C308.581,70.265 308.581,78.545 308.581,85.681 " fill="none" id="singleMovieEventListeners-movies" style="stroke: #000000; stroke-width: 0.55;"/><polygon fill="#000000" points="308.581,90.879,312.581,81.879,308.581,85.879,304.581,81.879,308.581,90.879" style="stroke: #000000; stroke-width: 0.55;"/><script type="text/plantuml"><![CDATA[
@startuml

scale max 1920 width
top to bottom direction

skinparam nodesep 13
skinparam ranksep 27
skinparam monochrome true
skinparam shadowing false
skinparam defaultFontName Tahoma
skinparam defaultFontSize 12
skinparam roundCorner 4
skinparam dpi 150
skinparam arrowColor black
skinparam arrowThickness 0.55
skinparam packageTitleAlignment left

skinparam usecase {
  borderThickness 0.5
}

skinparam rectangle {
  borderThickness 0.5
}

skinparam component {
  borderThickness 1
}


(locations)
(locationsData)
(<b>main</b>)
(movies)
(moviesData)
(moviesEventListeners)
(singleLocation)
(<b>singleMovie</b>)
(singleMovieEventListeners)
(util)


(locations) ----> (locationsData)
(locations) ---> (util)
(<b>main</b>) --[thickness=1]> (locations)
(<b>main</b>) --[thickness=1]> (movies)
(movies) ----> (moviesData)
(movies) --> (moviesEventListeners)
(movies) ---> (util)
(singleLocation) ----> (locationsData)
(singleLocation) ---> (util)
(<b>singleMovie</b>) ----[thickness=1]> (moviesData)
(<b>singleMovie</b>) --[thickness=1]> (singleLocation)
(<b>singleMovie</b>) -[thickness=1]> (singleMovieEventListeners)
(<b>singleMovie</b>) ---[thickness=1]> (util)
(singleMovieEventListeners) --> (locations)
(singleMovieEventListeners) --> (movies)

@enduml


' View and edit on https://arkit.pro
]]></script></g></svg>